# xmcd
# 
# Track frame offsets:
#     150
#     15179
#     31505
#     49164
#     64034
#     81607
#     99712
#     114055
#     128850
#     146669
#     159603
# 
# Disc length: 2363
# 
# Revision: 2
# Processed by: cddbd v1.5.2PL0 Copyright (c) Steve Scherf et al.
# Submitted via: fre:ac v1.0.17
# 
DISCID=8609390b
DTITLE=Swon Brothers - The Swon Brothers
DYEAR=2014
DGENRE=Country
TTITLE0=What I'm Thinking About
TTITLE1=Later On
TTITLE2=Chasing You Around
TTITLE3=Songs That Said It All
TTITLE4=Pray For You
TTITLE5=Breaking
TTITLE6=95
TTITLE7=Pretty Beautiful
TTITLE8=Colder
TTITLE9=Same Old Highway
TTITLE10=This Side Of Heaven
EXTD=YEAR: 2014
EXTT0=
EXTT1=
EXTT2=
EXTT3=
EXTT4=
EXTT5=
EXTT6=
EXTT7=
EXTT8=
EXTT9=
EXTT10=
PLAYORDER=
